<?xml version="1.0" ?><!DOCTYPE svg  PUBLIC '-//W3C//DTD SVG 1.1//EN'  'http://www.w3.org/Graphics/SVG/1.1/DTD/svg11.dtd'><svg height="512px" style="enable-background:new 0 0 512 512;" version="1.1" viewBox="0 0 512 512" width="512px" xml:space="preserve" xmlns="http://www.w3.org/2000/svg" xmlns:xlink="http://www.w3.org/1999/xlink"><g id="_x34_5-reddit"><g><circle cx="256" cy="256" r="240" style="fill:#FF9800;"/><g><path d="M406.613,245.7c0-20.401-16.602-36.992-37.019-36.992c-8.159,0-15.918,2.662-22.244,7.493     c-20.655-14.335-47.714-22.877-76.494-25.043l15.524-36.396l45.183,10.54c1.444,13.962,13.14,24.913,27.484,24.913     c15.304,0,27.761-12.447,27.761-27.745c0-15.291-12.457-27.739-27.761-27.739c-9.698,0-18.233,5.013-23.193,12.575     l-52.802-12.337c-4.479-1.016-8.868,1.261-10.644,5.384l-21.471,50.305c-31.072,1.071-60.688,9.82-83.048,25.061     c-6.088-4.515-13.64-7.01-21.691-7.01c-20.411,0-37.015,16.591-37.015,36.992c0,13.518,7.385,25.743,18.712,32.013     c-0.148,1.63-0.203,3.29-0.203,4.975c0,50.991,58.116,92.476,129.558,92.476c71.422,0,129.558-41.484,129.558-92.476     c0-1.44-0.057-2.866-0.148-4.291C398.729,272.259,406.613,259.737,406.613,245.7z M359.048,153.225     c5.108,0,9.254,4.141,9.254,9.245c0,5.108-4.146,9.247-9.254,9.247c-5.112,0-9.254-4.139-9.254-9.247     C349.794,157.365,353.936,153.225,359.048,153.225z M192.471,273.439c0-10.212,8.288-18.492,18.509-18.492     c10.222,0,18.507,8.28,18.507,18.492c0,10.216-8.285,18.497-18.507,18.497C200.759,291.937,192.471,283.655,192.471,273.439z      M299.985,334.787c-12.77,9.229-27.759,13.854-42.734,13.854c-14.975,0-29.964-4.625-42.733-13.854     c-4.148-2.995-5.073-8.785-2.074-12.909c2.996-4.125,8.786-5.046,12.919-2.07c19.081,13.779,44.696,13.813,63.778,0     c4.128-2.976,9.903-2.093,12.919,2.07C305.059,326.021,304.115,331.792,299.985,334.787z M303.523,291.937     c-10.227,0-18.511-8.281-18.511-18.497c0-10.212,8.284-18.492,18.511-18.492c10.219,0,18.506,8.28,18.506,18.492     C322.029,283.655,313.742,291.937,303.523,291.937z" style="fill:#FFFFFF;"/></g></g><linearGradient gradientUnits="userSpaceOnUse" id="SVGID_1_" x1="256" x2="256" y1="39.5459" y2="472.4546"><stop offset="0" style="stop-color:#FFFFFF"/><stop offset="0.1413" style="stop-color:#FFFFFF;stop-opacity:0.8587"/><stop offset="1" style="stop-color:#FFFFFF;stop-opacity:0"/></linearGradient><circle cx="256" cy="256.001" r="216.455" style="fill:url(#SVGID_1_);"/></g><g id="Layer_1"/></svg>