<svg xmlns="http://www.w3.org/2000/svg" version="1.1" xmlns:xlink="http://www.w3.org/1999/xlink" xmlns:svgjs="http://svgjs.dev/svgjs" width="1440" height="560" preserveAspectRatio="none" viewBox="0 0 1440 560"><g mask="url(&quot;#SvgjsMask1001&quot;)" fill="none"><path d="M140 108.71C74.45 86.85 44.36 116.79 0 82.35C-25.64 62.44 -25.93 15.25 0 0C44.07 -25.93 70 0 140 0C210 0 210 0 280 0C350 0 350 0 420 0C490 0 490 0 560 0C630 0 630 0 700 0C770 0 770 0 840 0C910 0 910 0 980 0C1050 0 1050 0 1120 0C1190 0 1190 0 1260 0C1297.69 0 1298.04 -3.5 1335.38 0C1368.04 3.06 1369.89 0.38 1400 13.13C1472.2 43.71 1487.65 39.23 1540 86.67C1557.65 102.67 1540 113.34 1540 140C1540 210 1540 210 1540 280C1540 350 1540 350 1540 420C1540 490 1575 525 1540 560C1505 595 1470 560 1400 560C1330 560 1330 560 1260 560C1190 560 1190 560 1120 560C1050.99 560 985.1 589.77 981.97 560C977.73 519.77 1105.84 473.39 1105.26 420C1104.85 382.14 1035.67 377.5 980 377.5C958.17 377.5 950.61 395.66 950.25 420C949.26 486.91 1005.39 524.34 977.31 560C950.27 594.34 908.65 560 840 560C785.91 560 772.74 580.46 731.82 560C702.74 545.46 719.94 522.58 700 490C677.1 452.58 679.98 446.25 646.15 420C609.98 391.94 600.32 381.38 560 381.38C534.54 381.38 514.59 395.26 514.59 420C514.59 468.77 529.29 480.6 560 528.39C574.27 550.6 604.55 551.29 604.55 560C604.55 567.1 582.28 560 560 560C490 560 490 560 420 560C350 560 350 560 280 560C210 560 210 560 140 560C70 560 35 595 0 560C-35 525 0 490 0 420C0 350 0 350 0 280C0 223.81 -30.63 184.38 0 167.61C39.37 146.05 82.15 212.57 140 203.33C168.57 198.77 172.84 168.92 172.84 140C172.84 121.61 160.87 115.67 140 108.71" stroke="rgba(51, 121, 194, 0.58)" stroke-width="2"></path><path d="M700 110.3C680.54 110.3 660.8 126.72 660.8 140C660.8 151.99 680.49 160.85 700 160.85C718.93 160.85 737.69 151.96 737.69 140C737.69 126.68 718.99 110.3 700 110.3" stroke="rgba(51, 121, 194, 0.58)" stroke-width="2"></path><path d="M1120 60.87C1065.51 60.87 1006.25 104.18 1006.25 140C1006.25 173.1 1064.71 198.71 1120 198.71C1165.97 198.71 1208.78 172.55 1208.78 140C1208.78 103.63 1166.77 60.87 1120 60.87" stroke="rgba(51, 121, 194, 0.58)" stroke-width="2"></path><path d="M420 219.25C400.21 219.25 379.24 251.21 379.24 280C379.24 303.64 400.08 324.11 420 324.11C439.18 324.11 457.44 303.48 457.44 280C457.44 251.05 439.31 219.25 420 219.25" stroke="rgba(51, 121, 194, 0.58)" stroke-width="2"></path><path d="M1400 240.25C1380.78 240.25 1361.2 256.03 1361.2 280C1361.2 327.84 1380.9 383.87 1400 383.87C1419.02 383.87 1437.44 328.05 1437.44 280C1437.44 256.24 1418.9 240.25 1400 240.25" stroke="rgba(51, 121, 194, 0.58)" stroke-width="2"></path><path d="M1260 392C1198.76 392 1136.47 402.16 1136.47 420C1136.47 438.5 1199.44 464.68 1260 464.68C1306.86 464.68 1351.3 438.74 1351.3 420C1351.3 402.4 1306.17 392 1260 392" stroke="rgba(51, 121, 194, 0.58)" stroke-width="2"></path><path d="M140 67.53C82.3 27.31 15.22 17.97 15.22 0C15.22 -15.8 77.61 0 140 0C210 0 210 0 280 0C350 0 350 0 420 0C490 0 490 0 560 0C630 0 630 0 700 0C770 0 770 0 840 0C910 0 910 0 980 0C1040.54 0 1101.08 -19.65 1101.08 0C1101.08 24.27 1046.57 57.12 980 87.84C916.03 117.36 901.79 138.92 840 120.47C761.79 97.12 770.47 5.2 700 4.24C630.47 3.3 635.24 70.59 560 116.67C524.41 138.47 519.41 129.28 478.33 140C449.41 147.55 440.18 133.51 420 153.21C368.48 203.51 334.94 219.91 334.94 280C334.94 329.33 376.95 326.52 420 372.05C443.13 396.52 452.04 390.73 467.3 420C501.04 484.71 532.26 517.78 518 560C508.61 587.78 469 560 420 560C350 560 350 560 280 560C210 560 210 560 140 560C86.97 560 81.9 571.99 33.94 560C11.9 554.49 5.38 547.2 0 525C-11.59 477.2 0 472.5 0 420C0 350 0 350 0 280C0 248.45 -19.87 216.9 0 216.9C46.01 216.9 98.77 228.15 131.76 280C163.38 329.7 125.51 352.07 129.23 420C129.63 427.25 135.07 430.37 140 430.37C144.24 430.37 147.21 426.32 147.57 420C151.45 351.13 132.26 346.34 148.48 280C166.5 206.34 218.58 203.39 216.05 140C214.34 97.16 182.72 97.31 140 67.53" stroke="rgba(51, 121, 194, 0.58)" stroke-width="2"></path><path d="M1292.56 140C1344.49 101.68 1347.57 67.81 1400 67.81C1447.49 67.81 1447.2 102.72 1492.4 140C1517.2 160.45 1530.49 155.31 1540 183.27C1554.29 225.31 1540 231.63 1540 280C1540 350 1540 350 1540 420C1540 490 1575 525 1540 560C1505 595 1470 560 1400 560C1330 560 1330 560 1260 560C1190 560 1190 560 1120 560C1075.64 560 1031.27 578.94 1031.27 560C1031.27 532.62 1068.63 472.03 1120 467.35C1183 461.61 1187.28 530.84 1260 539.15C1327.28 546.83 1334.3 528.84 1400 499.33C1466.93 469.27 1505.69 474.93 1525.26 420C1544.76 365.27 1513.49 342.93 1478.14 280C1450.86 231.45 1439.44 197.04 1400 197.04C1359.89 197.04 1358.82 237.86 1319.04 280C1288.82 312.01 1298.19 336.64 1260 345.33C1198.67 359.29 1190.26 332.9 1120 325.29C1050.26 317.74 1035.8 290.25 980 315C929.05 337.6 923.23 361.46 906.5 420C888.23 483.96 932.17 513.33 910 560C898.92 583.33 875 560 840 560C812.42 560 799.7 578.76 784.85 560C744.28 508.76 759.07 489.06 729.17 420C716.64 391.06 726.05 376.14 700 364C641.47 336.72 622.57 367.19 560 341.15C521.64 325.19 498.14 315.39 498.14 280C498.14 225.71 513.81 172 560 161.78C614.74 149.66 628.72 231.95 700 235.32C768.72 238.56 768.79 178.74 840 175C908.79 171.39 909.27 200.36 980 220.61C1049.27 240.44 1054.35 266.77 1120 255.16C1194.35 242.02 1192.37 216.24 1260 171.11C1278.65 158.66 1274.49 153.33 1292.56 140" stroke="rgba(51, 121, 194, 0.58)" stroke-width="2"></path><path d="M140 26.35C118.87 8.74 91.3 7.01 91.3 0C91.3 -6.17 115.65 0 140 0C210 0 210 0 280 0C322.61 0 355.45 -26.05 365.22 0C381.7 43.95 351 70.57 332.5 140C313.7 210.57 271.65 219.25 290.63 280C315.4 359.25 355.32 350 420 420C420 420 420 420 420 420C439.84 490 459.67 505 459.67 560C459.67 575 439.84 560 420 560C350 560 350 560 280 560C210 560 148.45 591.28 140 560C129.53 521.28 210.53 497.31 242.16 420C267.81 357.31 250.27 350.12 254.55 280C258.82 210.12 285.58 198.28 259.26 140C228.31 71.46 202.85 78.74 140 26.35" stroke="rgba(51, 121, 194, 0.58)" stroke-width="2"></path><path d="M560 33.33C525.3 33.33 486.32 8.72 486.32 0C486.32 -7.94 523.16 0 560 0C580.59 0 601.18 -7.29 601.18 0C601.18 9.38 582.73 33.33 560 33.33" stroke="rgba(51, 121, 194, 0.58)" stroke-width="2"></path><path d="M840 39.07C811.91 36.18 793.33 11.06 793.33 0C793.33 -8.48 816.66 0 840 0C910 0 910 0 980 0C993.24 0 1006.49 -4.3 1006.49 0C1006.49 5.31 995.65 15.55 980 19.22C912.4 35.08 905.25 45.79 840 39.07" stroke="rgba(51, 121, 194, 0.58)" stroke-width="2"></path><path d="M1373.95 140C1373.95 131.92 1387.29 122.5 1400 122.5C1411.51 122.5 1422.4 131.87 1422.4 140C1422.4 147.53 1411.43 153.83 1400 153.83C1387.2 153.83 1373.95 147.59 1373.95 140" stroke="rgba(51, 121, 194, 0.58)" stroke-width="2"></path><path d="M0 266.2C10.06 266.2 28.82 266.2 28.82 280C28.82 334.35 7.3 402.5 0 402.5C-7.11 402.5 0 341.25 0 280C0 273.1 -4.35 266.2 0 266.2" stroke="rgba(51, 121, 194, 0.58)" stroke-width="2"></path><path d="M538.84 280C538.84 261.43 542.98 239.56 560 239.56C593.13 239.56 639.13 264.03 639.13 280C639.13 294.71 596.78 300.92 560 300.92C546.63 300.92 538.84 292.11 538.84 280" stroke="rgba(51, 121, 194, 0.58)" stroke-width="2"></path><path d="M1201.67 280C1201.67 267.08 1235.51 248.89 1260 248.89C1273.11 248.89 1276.87 265.45 1276.87 280C1276.87 290.34 1270.95 298.67 1260 298.67C1233.35 298.67 1201.67 291.97 1201.67 280" stroke="rgba(51, 121, 194, 0.58)" stroke-width="2"></path><path d="M1518.84 280C1518.84 262.54 1534.26 246.91 1540 246.91C1544.84 246.91 1540 263.45 1540 280C1540 305.28 1545.08 330.56 1540 330.56C1534.5 330.56 1518.84 304.36 1518.84 280" stroke="rgba(51, 121, 194, 0.58)" stroke-width="2"></path><path d="M802.08 420C802.51 373.16 824.46 329 840 329C854.79 329 862.21 373.94 862.75 420C863.56 489.44 853.85 491.31 842.69 560C842.48 561.31 841.35 560 840 560C838.94 560 838.15 561.01 837.88 560C819.19 491.01 801.45 488.66 802.08 420" stroke="rgba(51, 121, 194, 0.58)" stroke-width="2"></path><path d="M1080.56 560C1080.56 547.83 1097.2 518.82 1120 518.82C1153.76 518.82 1193.68 549.01 1193.68 560C1193.68 569.6 1156.84 560 1120 560C1100.28 560 1080.56 568.42 1080.56 560" stroke="rgba(51, 121, 194, 0.58)" stroke-width="2"></path></g><defs><mask id="SvgjsMask1001"><rect width="1440" height="560" fill="#ffffff"></rect></mask></defs></svg>